<svg width="1024" height="1024" viewBox="0 0 1024 1024" fill="none" xmlns="http://www.w3.org/2000/svg">
  <defs>
    <linearGradient id="bg" x1="140" y1="120" x2="876" y2="900" gradientUnits="userSpaceOnUse">
      <stop offset="0" stop-color="#5FE3FF"/>
      <stop offset="0.52" stop-color="#1798E5"/>
      <stop offset="1" stop-color="#0A436F"/>
    </linearGradient>
    <linearGradient id="panel" x1="275" y1="248" x2="747" y2="796" gradientUnits="userSpaceOnUse">
      <stop offset="0" stop-color="#FFFFFF" stop-opacity="0.96"/>
      <stop offset="1" stop-color="#D7F3FF" stop-opacity="0.92"/>
    </linearGradient>
    <linearGradient id="accent" x1="316" y1="352" x2="734" y2="738" gradientUnits="userSpaceOnUse">
      <stop offset="0" stop-color="#1DB7FF"/>
      <stop offset="1" stop-color="#006CC7"/>
    </linearGradient>
    <filter id="shadow" x="123" y="129" width="778" height="778" filterUnits="userSpaceOnUse" color-interpolation-filters="sRGB">
      <feFlood flood-opacity="0" result="BackgroundImageFix"/>
      <feColorMatrix in="SourceAlpha" type="matrix" values="0 0 0 0 0 0 0 0 0 0 0 0 0 0 0 0 0 0 127 0" result="hardAlpha"/>
      <feOffset dy="22"/>
      <feGaussianBlur stdDeviation="36"/>
      <feComposite in2="hardAlpha" operator="out"/>
      <feColorMatrix type="matrix" values="0 0 0 0 0.0196078 0 0 0 0 0.184314 0 0 0 0 0.341176 0 0 0 0.28 0"/>
      <feBlend mode="normal" in2="BackgroundImageFix" result="effect1_dropShadow_1_1"/>
      <feBlend mode="normal" in="SourceGraphic" in2="effect1_dropShadow_1_1" result="shape"/>
    </filter>
  </defs>

  <rect x="64" y="64" width="896" height="896" rx="208" fill="url(#bg)"/>
  <circle cx="777" cy="232" r="104" fill="#FFFFFF" fill-opacity="0.10"/>
  <circle cx="235" cy="818" r="136" fill="#FFFFFF" fill-opacity="0.08"/>

  <g filter="url(#shadow)">
    <rect x="195" y="201" width="634" height="634" rx="190" fill="#052C4E" fill-opacity="0.16"/>
    <rect x="213" y="183" width="598" height="598" rx="176" fill="url(#panel)"/>

    <path d="M512 307C406.514 307 321 392.514 321 498V536C321 556.987 338.013 574 359 574H397C417.987 574 435 556.987 435 536V498C435 446.638 476.638 405 528 405C579.362 405 621 446.638 621 498V518C621 526.837 628.163 534 637 534H651C659.837 534 667 526.837 667 518V498C667 392.514 581.486 307 476 307H512Z" fill="url(#accent)"/>

    <path d="M375 480C375 459.013 392.013 442 413 442H429C449.987 442 467 459.013 467 480V571C467 591.987 449.987 609 429 609H413C392.013 609 375 591.987 375 571V480Z" fill="#0C5FB7"/>
    <path d="M557 480C557 459.013 574.013 442 595 442H611C631.987 442 649 459.013 649 480V571C649 591.987 631.987 609 611 609H595C574.013 609 557 591.987 557 571V480Z" fill="#0C5FB7"/>

    <circle cx="512" cy="526" r="118" fill="#F4FBFF"/>
    <circle cx="478" cy="507" r="22" fill="#0D6ACA"/>
    <circle cx="548" cy="507" r="22" fill="#0D6ACA"/>
    <path d="M455 574C473.765 599.124 490.811 611 512 611C533.189 611 550.235 599.124 569 574" stroke="#0D6ACA" stroke-width="28" stroke-linecap="round"/>

    <path d="M625 576C647.267 576 665.321 594.054 665.321 616.321V631.933C665.321 675.488 630.013 710.795 586.458 710.795H496" stroke="#0D6ACA" stroke-width="24" stroke-linecap="round"/>
    <rect x="434" y="685" width="104" height="58" rx="29" fill="#0D6ACA"/>

    <path d="M331 417C308.014 440.896 294 473.36 294 509" stroke="#FFFFFF" stroke-width="28" stroke-linecap="round" stroke-opacity="0.92"/>
    <path d="M693 417C715.986 440.896 730 473.36 730 509" stroke="#FFFFFF" stroke-width="28" stroke-linecap="round" stroke-opacity="0.92"/>

    <path d="M332 692L360 640L389 692H332Z" fill="#0D6ACA" fill-opacity="0.92"/>
    <path d="M377 642C377 618.804 395.804 600 419 600H487C510.196 600 529 618.804 529 642V646C529 669.196 510.196 688 487 688H419C395.804 688 377 669.196 377 646V642Z" fill="#0D6ACA" fill-opacity="0.92"/>
    <path d="M404 643H500" stroke="#FFFFFF" stroke-width="18" stroke-linecap="round"/>
    <path d="M404 673H472" stroke="#FFFFFF" stroke-width="18" stroke-linecap="round" stroke-opacity="0.9"/>

    <path d="M707 352C742.104 381.841 764.321 426.351 764.321 476" stroke="#FFFFFF" stroke-width="18" stroke-linecap="round" stroke-opacity="0.6"/>
    <path d="M744 317C790.706 357.318 820 417.003 820 483" stroke="#FFFFFF" stroke-width="18" stroke-linecap="round" stroke-opacity="0.35"/>
  </g>
</svg>
